<?xml version="1.0" encoding="utf-8"?>
<!-- Generator: Adobe Illustrator 17.0.0, SVG Export Plug-In . SVG Version: 6.00 Build 0)  -->
<!DOCTYPE svg PUBLIC "-//W3C//DTD SVG 1.1//EN" "http://www.w3.org/Graphics/SVG/1.1/DTD/svg11.dtd">
<svg version="1.1" id="图层_1" xmlns="http://www.w3.org/2000/svg" xmlns:xlink="http://www.w3.org/1999/xlink" x="0px" y="0px"
	 width="595.28px" height="841.89px" viewBox="0 0 595.28 841.89" enable-background="new 0 0 595.28 841.89" xml:space="preserve">
<path d="M342.843,409.536l-9.272-1.268c-1.292,0-3.863,0.426-7.727,1.268c-5.833-0.414-11.03-0.781-15.613-1.094
	c-0.84-15.804-3.821-33.208-8.942-38.859c-6.131-6.338-10.567,1.92-13.311,1.92c-1.48,0-2.432,1.316-2.852,3.961
	c-0.427,2.64-0.635,7.765-0.635,15.37c0,5.218,0.161,11.081,0.477,17.564c-14.465,1.047-24.936,3.956-31.375,8.742
	c-7.727,6.131-11.59,10.567-11.59,13.311c0,1.48,1.605,2.432,4.829,2.852c3.218,0.427,9.466,0.635,18.738,0.635
	c6.451,0,13.708-0.166,21.745-0.49c0.463,4.367,0.982,10.17,1.279,12.136c0.901,5.967,0.695,22.91,4.923,28.193
	c4.437,5.491,7.18,1.557,8.24,1.557c1.268,0,6.502-15.412,7.135-21.117l1.268-7.605c0-1.06,1.159-2.859,0.317-6.028
	c0.263-3.043-0.113-5.997-0.354-8.714c0.95-0.101,1.88-0.203,2.774-0.308c4.504-0.525,8.307-1.214,11.398-2.061
	c6.181-1.688,12.49-4.645,18.931-8.873c6.695-4.437,10.045-7.18,10.045-8.24C353.275,411.12,349.798,410.17,342.843,409.536z"/>
</svg>
