<?xml version="1.0" encoding="utf-8"?>
<!-- Generator: Adobe Illustrator 17.0.0, SVG Export Plug-In . SVG Version: 6.00 Build 0)  -->
<!DOCTYPE svg PUBLIC "-//W3C//DTD SVG 1.1//EN" "http://www.w3.org/Graphics/SVG/1.1/DTD/svg11.dtd">
<svg version="1.1" id="图层_1" xmlns="http://www.w3.org/2000/svg" xmlns:xlink="http://www.w3.org/1999/xlink" x="0px" y="0px"
	 width="595.28px" height="841.89px" viewBox="0 0 595.28 841.89" enable-background="new 0 0 595.28 841.89" xml:space="preserve">
<path d="M320.775,409.536c3.169-0.842,5.278-1.268,6.338-1.268l7.605,1.268c5.705,0.634,8.557,1.584,8.557,2.852
	c0,1.061-2.748,3.804-8.239,8.24c-5.283,4.229-10.458,7.185-15.528,8.873c-2.536,0.847-5.655,1.535-9.35,2.061
	c-3.698,0.529-7.977,1.005-12.835,1.426c-9.933,0.634-18.594,0.951-25.986,0.951c-7.605,0-12.73-0.208-15.37-0.635
	c-2.645-0.42-3.961-1.371-3.961-2.852c0-2.743,3.169-7.18,9.507-13.311c6.759-6.125,18.906-9.19,36.444-9.19
	c2.744,0,6.021,0.158,9.824,0.476C311.584,408.743,315.911,409.115,320.775,409.536z"/>
</svg>
