<?xml version="1.0" encoding="utf-8"?>
<!-- Generator: Adobe Illustrator 17.0.0, SVG Export Plug-In . SVG Version: 6.00 Build 0)  -->
<!DOCTYPE svg PUBLIC "-//W3C//DTD SVG 1.1//EN" "http://www.w3.org/Graphics/SVG/1.1/DTD/svg11.dtd">
<svg version="1.1" id="图层_1" xmlns="http://www.w3.org/2000/svg" xmlns:xlink="http://www.w3.org/1999/xlink" x="0px" y="0px"
	 width="595.28px" height="841.89px" viewBox="0 0 595.28 841.89" enable-background="new 0 0 595.28 841.89" xml:space="preserve">
<path d="M358.329,337.914c5.07,2.328,8.66,5.917,10.774,10.775c2.109,4.863,3.169,12.043,3.169,21.55
	c0,22.396-6.021,45.427-18.063,69.086c-11.835,23.452-26.304,42.362-43.417,56.728c-17.113,14.157-31.85,21.232-44.209,21.232
	c-12.359,0-22.768-5.174-31.216-15.528c-8.239-10.349-12.359-24.293-12.359-41.832c0-17.747,6.442-37.499,19.332-59.262
	c6.546-10.983,13.785-21.02,21.708-30.106c7.923-9.082,16.638-17.217,26.146-24.402c19.223-14.365,35.811-21.55,49.755-21.55
	C351.143,324.604,357.269,329.041,358.329,337.914z M322.835,368.338l5.388-11.409c-21.764,9.72-41.199,27.15-58.312,52.291
	c-16.905,25.145-25.354,46.482-25.354,64.016c0,12.042,4.699,18.063,14.103,18.063c9.398,0,22.659-7.076,39.772-21.232
	c16.9-14.152,30.948-30.632,42.149-49.438c11.195-19.223,16.796-36.549,16.796-51.974c0-9.928-3.595-14.895-10.774-14.895
	C339.839,353.76,331.916,358.623,322.835,368.338z"/>
</svg>
