<?xml version="1.0" encoding="utf-8"?>
<!-- Generator: Adobe Illustrator 17.0.0, SVG Export Plug-In . SVG Version: 6.00 Build 0)  -->
<!DOCTYPE svg PUBLIC "-//W3C//DTD SVG 1.1//EN" "http://www.w3.org/Graphics/SVG/1.1/DTD/svg11.dtd">
<svg version="1.1" id="图层_1" xmlns="http://www.w3.org/2000/svg" xmlns:xlink="http://www.w3.org/1999/xlink" x="0px" y="0px"
	 width="595.28px" height="841.89px" viewBox="0 0 595.28 841.89" enable-background="new 0 0 595.28 841.89" xml:space="preserve">
<g>
	<path d="M271.74,374.952v-12.347c20.165-17.697,38.273-30.762,54.324-39.202c2.671,4.321,4.63,8.179,5.866,11.574
		c1.235,3.397,1.955,6.59,2.16,9.571c0.205,2.985,0.05,5.815-0.461,8.489c-0.519,2.675-1.189,5.353-2.01,8.026
		c-1.44,4.735-7.511,18.009-18.212,39.818c-10.291,21.407-18.932,42.395-25.928,62.972c-6.996,20.576-10.084,32.717-9.259,36.422
		c1.438,6.586,2.16,11.162,2.16,13.732c0,2.579-0.825,4.069-2.468,4.48c-3.705,0-9.058-2.265-16.052-6.791
		c-6.998-4.526-10.494-10.906-10.494-19.142c0-12.962,5.246-32.608,15.742-58.955c5.349-13.167,11.367-26.129,18.057-38.89
		c6.684-12.757,14.145-25.623,22.38-38.587C296.226,360.652,284.289,366.926,271.74,374.952z"/>
</g>
</svg>
