<?xml version="1.0" encoding="utf-8"?>
<!-- Generator: Adobe Illustrator 17.0.0, SVG Export Plug-In . SVG Version: 6.00 Build 0)  -->
<!DOCTYPE svg PUBLIC "-//W3C//DTD SVG 1.1//EN" "http://www.w3.org/Graphics/SVG/1.1/DTD/svg11.dtd">
<svg version="1.1" id="图层_1" xmlns="http://www.w3.org/2000/svg" xmlns:xlink="http://www.w3.org/1999/xlink" x="0px" y="0px"
	 width="595.28px" height="841.89px" viewBox="0 0 595.28 841.89" enable-background="new 0 0 595.28 841.89" xml:space="preserve">
<path d="M264.365,359.98c-5.705-2.743-8.557-7.606-8.557-14.578c0-10.983,7.813-19.856,23.451-26.621
	c15.212-6.546,34.751-9.824,58.628-9.824c33.38,0,50.072,12.042,50.072,36.128c0,5.496-0.847,10.299-2.535,14.419
	c-1.693,4.12-4.229,7.873-7.606,11.25c-3.169,2.749-6.654,5.388-10.458,7.923c-3.382,2.114-11.621,4.967-24.719,8.557
	c-13.103,3.595-31.8,7.923-56.093,12.993c27.462,2.536,45.526,7.29,54.191,14.261c8.447,6.764,12.677,14.846,12.677,24.243
	c0,9.403-4.12,19.49-12.359,30.266c-8.032,10.774-20.812,19.544-38.347,26.304c-17.113,6.546-33.488,9.824-49.121,9.824
	c-15.212,0-26.729-2.219-34.543-6.655c-7.814-4.437-11.726-9.929-11.726-16.479c0-5.278,2.535-11.3,7.605-18.063
	c5.278-6.547,9.824-9.824,13.627-9.824c1.476,0,2.219,0.371,2.219,1.108c0,0.743-0.213,1.585-0.634,2.535
	c-0.426,0.951-0.951,1.956-1.585,3.011c-0.634,1.06-0.95,1.901-0.95,2.536c0,2.535,2.426,4.649,7.289,6.338
	c4.857,1.693,11.408,2.535,19.648,2.535c19.015,0,37.078-4.12,54.191-12.359c17.113-8.24,25.67-16.479,25.67-24.719
	c0-6.339-4.438-10.775-13.311-13.311c-8.452-2.743-20.074-4.12-34.86-4.12c-14.578,0-25.778,1.06-33.593,3.169
	c-1.48,0-2.218-1.951-2.218-5.862c0-3.907,1.158-8.819,3.486-14.737c2.535-5.912,5.278-9.715,8.239-11.409
	c3.169-1.476,10.141-3.06,20.916-4.753c31.479-4.858,54.033-10.508,67.66-16.955c13.628-6.442,20.441-13.042,20.441-19.807
	c0-3.803-2.59-6.813-7.765-9.032c-5.18-2.218-14.103-3.327-26.779-3.327c-12.468,0-24.401,1.268-35.811,3.803
	c-11.409,2.327-17.113,4.754-17.113,7.289c0,1.268,0.579,2.377,1.743,3.328c1.158,0.951,3.961,2.168,8.398,3.645
	c0.634,0,1.268,0.371,1.901,1.109c0.634,0.743,0.95,1.535,0.95,2.377C296.689,359.243,285.914,360.406,264.365,359.98z"/>
</svg>
