<?xml version="1.0" encoding="utf-8"?>
<!-- Generator: Adobe Illustrator 17.0.0, SVG Export Plug-In . SVG Version: 6.00 Build 0)  -->
<!DOCTYPE svg PUBLIC "-//W3C//DTD SVG 1.1//EN" "http://www.w3.org/Graphics/SVG/1.1/DTD/svg11.dtd">
<svg version="1.1" id="图层_1" xmlns="http://www.w3.org/2000/svg" xmlns:xlink="http://www.w3.org/1999/xlink" x="0px" y="0px"
	 width="595.28px" height="841.89px" viewBox="0 0 595.28 841.89" enable-background="new 0 0 595.28 841.89" xml:space="preserve">
<path d="M338.715,445.339l-32.642,6.973c-2.962,8.239-4.967,17.112-6.021,26.62c2.743,2.114,4.119,4.546,4.119,7.289
	c0,2.535-3.698,6.338-11.092,11.408c-7.397,5.071-12.255,7.606-14.577,7.606c-4.863,0-7.289-3.699-7.289-11.092
	c0-12.464,1.584-24.72,4.754-36.762c-8.453,0.847-15.529,1.48-21.233,1.901c-5.704,0.426-10.037,0.634-12.993,0.634
	c-6.339,0-11.305-0.738-14.896-2.219c-3.595-1.688-6.654-5.912-9.19-12.676c-2.327-7.606-3.485-12.885-3.485-15.846
	c0-6.973,4.327-17.004,12.993-30.106c8.447-12.885,20.808-25.878,37.078-38.98c8.027-6.546,16.639-12.884,25.829-19.014
	c9.189-6.125,19.063-12.043,29.631-17.747c21.124-11.409,33.38-17.113,36.762-17.113c5.07,0,7.605,2.852,7.605,8.557
	c0,1.48-1.06,4.437-3.169,8.874c3.377,2.748,5.07,5.704,5.07,8.874c0,4.016-0.847,8.032-2.535,12.042
	c-1.48,3.382-8.031,13.736-19.648,31.057c-11.409,17.539-19.544,31.8-24.402,42.783c7.814-1.476,13.994-2.535,18.54-3.169
	c4.54-0.634,7.338-0.95,8.397-0.95c4.645,0,6.973,2.114,6.973,6.338C353.293,424.848,348.43,433.089,338.715,445.339z
	 M289.276,423.472c4.011-8.24,7.868-15.688,11.567-22.343c3.694-6.655,7.234-12.409,10.616-17.271
	c7.394-10.562,16.267-21.867,26.621-33.91c10.982-12.463,16.479-19.648,16.479-21.55s-1.164-2.852-3.486-2.852
	c-3.595,0-20.708,10.458-51.34,31.374c-30.849,20.916-52.399,44.685-64.649,71.305C254.941,426.958,273.005,425.374,289.276,423.472
	z"/>
</svg>
