<?xml version="1.0" encoding="utf-8"?>
<!-- Generator: Adobe Illustrator 17.0.0, SVG Export Plug-In . SVG Version: 6.00 Build 0)  -->
<!DOCTYPE svg PUBLIC "-//W3C//DTD SVG 1.1//EN" "http://www.w3.org/Graphics/SVG/1.1/DTD/svg11.dtd">
<svg version="1.1" id="图层_1" xmlns="http://www.w3.org/2000/svg" xmlns:xlink="http://www.w3.org/1999/xlink" x="0px" y="0px"
	 width="595.28px" height="841.89px" viewBox="0 0 595.28 841.89" enable-background="new 0 0 595.28 841.89" xml:space="preserve">
<path d="M302.236,324.921c15.845,0.847,30.106,1.268,42.782,1.268c12.677,0,25.354-0.317,38.029-0.951
	c-9.086,19.44-16.271,30.953-21.55,34.543c-2.114,0.426-5.917,0.743-11.408,0.951c-5.497,0.213-12.677,0.317-21.551,0.317
	c-8.873,0-15.954,0-21.232,0c-5.284,0-8.77-0.104-10.458-0.317c-11.409,9.72-20.708,21.976-27.889,36.762
	c19.648-6.546,34.86-9.824,45.636-9.824c10.774,0,19.697,3.437,26.778,10.3c7.076,6.868,10.617,17.271,10.617,31.216
	c0,24.511-11.409,45.318-34.227,62.431c-23.03,16.905-48.805,25.354-77.326,25.354c-10.988,0-18.431-1.693-22.343-5.071
	c-3.906-3.377-5.862-8.447-5.862-15.211c0-6.547,1.584-11.934,4.754-16.163c2.961-4.437,8.343-8.344,16.162-11.726
	c8.239-3.59,16.37-5.388,24.402-5.388c1.268,0,1.901,0.372,1.901,1.109c0,0.743-1.901,1.853-5.705,3.328
	c-3.803,1.268-7.501,2.961-11.092,5.07c-3.595,2.114-5.387,3.803-5.387,5.07c0,2.748,4.327,4.12,12.993,4.12
	c13.944,0,28.096-3.59,42.466-10.775c7.393-3.59,13.89-7.338,19.49-11.25c5.596-3.907,10.403-7.973,14.419-12.201
	c8.027-8.239,12.043-14.469,12.043-18.697c0-4.225-2.011-7.497-6.021-9.824c-3.803-2.535-9.933-3.804-18.381-3.804
	c-8.452,0-18.173,1.585-29.155,4.754c-11.201,3.169-18.064,4.754-20.6,4.754c-2.748,0-5.601-2.427-8.557-7.289
	c-2.961-4.857-5.18-11.092-6.655-18.698C255.65,376.686,273.287,351.967,302.236,324.921z"/>
</svg>
