<?xml version="1.0" encoding="utf-8"?>
<!-- Generator: Adobe Illustrator 17.0.0, SVG Export Plug-In . SVG Version: 6.00 Build 0)  -->
<!DOCTYPE svg PUBLIC "-//W3C//DTD SVG 1.1//EN" "http://www.w3.org/Graphics/SVG/1.1/DTD/svg11.dtd">
<svg version="1.1" id="图层_1" xmlns="http://www.w3.org/2000/svg" xmlns:xlink="http://www.w3.org/1999/xlink" x="0px" y="0px"
	 width="595.28px" height="841.89px" viewBox="0 0 595.28 841.89" enable-background="new 0 0 595.28 841.89" xml:space="preserve">
<path d="M337.571,326.347l16.162,0.951c3.378,0.213,6.18,0.426,8.398,0.634c2.219,0.213,3.853,0.426,4.912,0.634
	c2.322,0.426,3.486,1.376,3.486,2.852c0,1.268-4.754,4.437-14.261,9.507c-17.539,9.299-33.702,19.757-48.488,31.374
	c-15.211,12.043-28.418,25.249-39.613,39.614c-5.917,7.185-8.874,11.201-8.874,12.042h0.317c0.208,0,1.476-1.159,3.803-3.486
	c9.929-10.141,18.856-17.479,26.779-22.025c7.923-4.541,16.425-6.814,25.511-6.814c9.508,0,17.113,2.961,22.818,8.874
	c5.704,5.917,8.557,14.371,8.557,25.353c0,10.988-4.12,23.877-12.36,38.663c-4.016,7.397-8.61,14.103-13.785,20.124
	c-5.18,6.021-10.829,11.463-16.955,16.32c-12.255,9.721-24.194,14.578-35.811,14.578c-11.201,0-21.233-5.912-30.106-17.747
	c-8.874-12.042-13.311-25.14-13.311-39.297c0-20.282,10.245-43.204,30.74-68.77C276.194,363.956,303.552,342.826,337.571,326.347z
	 M250.738,472.759c0,6.339,0.842,10.988,2.535,13.944c1.476,2.535,4.753,3.803,9.824,3.803c5.07,0,12.884-4.119,23.451-12.359
	c5.278-4.224,10.087-8.605,14.419-13.151c4.328-4.541,8.186-9.453,11.567-14.736c6.76-10.562,10.142-20.069,10.142-28.522
	c0-8.66-3.278-12.993-9.824-12.993c-2.114,0-4.809,0.688-8.081,2.06c-3.278,1.376-6.814,3.278-10.617,5.705
	c-3.803,2.431-7.873,5.338-12.201,8.715c-4.332,3.382-8.507,7.081-12.518,11.092c-8.031,7.819-13.151,14.42-15.37,19.807
	C251.846,461.509,250.738,467.055,250.738,472.759z"/>
</svg>
