<?xml version="1.0" encoding="utf-8"?>
<!-- Generator: Adobe Illustrator 17.0.0, SVG Export Plug-In . SVG Version: 6.00 Build 0)  -->
<!DOCTYPE svg PUBLIC "-//W3C//DTD SVG 1.1//EN" "http://www.w3.org/Graphics/SVG/1.1/DTD/svg11.dtd">
<svg version="1.1" id="图层_1" xmlns="http://www.w3.org/2000/svg" xmlns:xlink="http://www.w3.org/1999/xlink" x="0px" y="0px"
	 width="595.28px" height="841.89px" viewBox="0 0 595.28 841.89" enable-background="new 0 0 595.28 841.89" xml:space="preserve">
<path d="M278.308,495.655l2.219,2.853c-18.381,14.37-31.904,21.55-40.564,21.55c-8.666,0-12.993-5.07-12.993-15.212
	c0-14.151,9.611-35.385,28.839-63.698c19.223-28.31,46.477-55.985,81.763-83.031c-6.972-1.055-13.627-1.847-19.966-2.376
	c-6.338-0.525-12.359-0.792-18.063-0.792c-23.451,0-41.832,4.437-55.143,13.311c-2.748,1.693-4.437,2.535-5.07,2.535
	s-1.585-0.525-2.853-1.584c-1.268-0.842-1.901-2.11-1.901-3.803c0-1.688,2.006-5.595,6.021-11.726
	c4.011-6.546,7.813-12.25,11.409-17.113c3.377-5.07,6.759-8.24,10.141-9.507c3.59-1.476,11.617-2.639,24.085-3.486
	c9.508-0.842,18.698-1.372,27.571-1.584c8.874-0.208,16.742-0.208,23.61,0c6.863,0.213,12.463,0.475,16.796,0.792
	c4.328,0.317,6.918,0.476,7.765,0.476c4.224,10.141,6.338,18.807,6.338,25.987c0,2.327-0.268,4.229-0.792,5.704
	c-0.53,1.48-2.377,3.595-5.546,6.338c-19.015,16.479-35.92,33.909-50.706,52.29c-14.578,17.96-25.304,33.91-32.166,47.854
	c-6.868,13.943-10.3,24.614-10.3,32.008c0,2.748,0.792,4.119,2.377,4.119C272.762,497.556,275.139,496.923,278.308,495.655z"/>
</svg>
