<?xml version="1.0" encoding="utf-8"?>
<!-- Generator: Adobe Illustrator 17.0.0, SVG Export Plug-In . SVG Version: 6.00 Build 0)  -->
<!DOCTYPE svg PUBLIC "-//W3C//DTD SVG 1.1//EN" "http://www.w3.org/Graphics/SVG/1.1/DTD/svg11.dtd">
<svg version="1.1" id="图层_1" xmlns="http://www.w3.org/2000/svg" xmlns:xlink="http://www.w3.org/1999/xlink" x="0px" y="0px"
	 width="595.28px" height="841.89px" viewBox="0 0 595.28 841.89" enable-background="new 0 0 595.28 841.89" xml:space="preserve">
<path d="M297.64,421.896c5.912,10.988,10.032,19.441,12.359,25.353c2.109,5.07,3.169,10.884,3.169,17.43
	c0,15.212-5.813,28.948-17.43,41.199c-11.622,12.255-25.883,18.38-42.783,18.38c-10.141,0-18.648-2.218-25.511-6.654
	c-6.868-4.438-10.3-10.245-10.3-17.431c0-7.18,4.328-16.796,12.993-28.839c8.66-12.042,21.971-27.358,39.931-45.952
	c-15.212-17.747-22.817-34.226-22.817-49.438c0-15.212,5.278-27.462,15.846-36.762c10.349-9.082,24.293-14.895,41.832-17.43
	c8.873-1.476,16.846-2.535,23.927-3.169c7.076-0.634,13.469-0.951,19.173-0.951c11.617,0,19.54,0.53,23.769,1.585
	c4.224,1.06,6.338,3.065,6.338,6.021c0,2.961-1.901,7.715-5.704,14.261c-4.016,7.185-6.972,11.409-8.874,12.676
	c-2.114,1.48-5.812,2.218-11.092,2.218c1.901,3.169,2.853,5.813,2.853,7.923c0,2.114-1.377,4.65-4.12,7.606
	c-2.535,2.961-9.72,9.824-21.55,20.599c-5.917,5.284-11.518,10.513-16.796,15.687C307.569,411.389,302.497,416.618,297.64,421.896z
	 M280.21,439.326c-5.918,6.13-11.464,12.151-16.639,18.063c-5.179,5.918-9.878,11.727-14.102,17.431
	c-8.666,11.622-12.994,19.015-12.994,22.184c0,6.764,5.809,10.142,17.431,10.142c8.873,0,17.004-3.804,24.402-11.409
	c7.393-7.605,11.092-16.479,11.092-26.62C289.401,458.975,286.335,449.047,280.21,439.326z M288.45,408.586
	c27.462-24.085,43.941-38.663,49.438-43.734c5.491-5.07,8.239-8.026,8.239-8.874c0-2.956-6.764-4.437-20.282-4.437
	c-16.692,0-29.631,2.377-38.821,7.13c-9.19,4.754-13.786,11.567-13.786,20.441C273.238,386.719,278.309,396.543,288.45,408.586z"/>
</svg>
