<?xml version="1.0" encoding="utf-8"?>
<!-- Generator: Adobe Illustrator 17.0.0, SVG Export Plug-In . SVG Version: 6.00 Build 0)  -->
<!DOCTYPE svg PUBLIC "-//W3C//DTD SVG 1.1//EN" "http://www.w3.org/Graphics/SVG/1.1/DTD/svg11.dtd">
<svg version="1.1" id="图层_1" xmlns="http://www.w3.org/2000/svg" xmlns:xlink="http://www.w3.org/1999/xlink" x="0px" y="0px"
	 width="595.28px" height="841.89px" viewBox="0 0 595.28 841.89" enable-background="new 0 0 595.28 841.89" xml:space="preserve">
<path d="M327.698,411.596c-17.326,14.37-31.057,24.615-41.198,30.741c-9.72,5.917-17.855,8.873-24.402,8.873
	c-6.338,0-13.419-5.388-21.232-16.162c-3.803-5.278-6.765-10.721-8.874-16.321c-2.114-5.595-3.01-11.3-2.693-17.113
	c0.317-5.809,1.901-11.775,4.754-17.906c2.852-6.125,7.338-12.567,13.469-19.332c12.042-13.31,27.041-24.927,45.001-34.86
	c18.168-9.928,32.325-14.895,42.466-14.895c6.76,0,13.311,3.169,19.648,9.507c6.339,6.338,9.508,11.834,9.508,16.479
	c0,4.649-4.546,10.884-13.627,18.698c-9.087,7.819-15.004,11.726-17.747,11.726c-0.847,0-1.268-0.208-1.268-0.634
	c0-1.476,2.322-4.541,6.972-9.19c4.857-4.858,7.289-8.131,7.289-9.824c0-1.688-0.743-2.535-2.219-2.535
	c-2.327,0-9.299,2.535-20.916,7.605c-11.2,4.65-22.714,11.518-34.543,20.6c-11.201,8.666-19.228,17.222-24.085,25.669
	c-4.65,8.24-6.973,14.845-6.973,19.807c0,4.966,2.743,7.448,8.24,7.448c5.704,0,14.682-3.273,26.938-9.825
	c12.884-6.759,23.659-14.469,32.324-23.134c6.339-6.759,11.672-11.934,16.004-15.529c4.328-3.59,7.923-6.021,10.775-7.289
	s5.229-1.688,7.13-1.268c1.902,0.426,3.591,1.268,5.071,2.535c1.688,1.694,2.535,3.065,2.535,4.12
	c0,0.847-12.256,21.129-36.762,60.847c-24.511,39.51-41.308,63.808-50.389,72.889c-9.3,9.3-16.797,13.944-22.501,13.944
	c-2.961,0-4.437-2.114-4.437-6.338c0-4.011,2.219-10.032,6.655-18.064c4.645-7.813,9.715-11.408,15.212-10.774
	C293.68,463.995,311.64,437.162,327.698,411.596z"/>
</svg>
